# xmcd
#
# Track frame offsets:
#	150
#	27696
#	57096
#	82106
#	109291
#	137935
#	169960
#	192631
#	219998
#	247224
#
# Disc length: 3887 seconds
# Revision: 0
# Processed by: cddbd v1.5.2PL0 Copyright (c) Steve Scherf et al.
# Submitted via: dBpowerAMP V12.0
#
DISCID=a00f2d0a
DTITLE=Various Artist - DJ Marky and Friends: The Master Plan
DYEAR=2007
DGENRE=D&B
TTITLE0=DJ Marky and Artificial Intelligence (Feat. Ben Westbeech) - Shame
TTITLE1=C.A.B.L.E. - New Infection
TTITLE2=Random Movement and Focus - Shattered Dreams
TTITLE3=BCee and Lomax - One Year On
TTITLE4=DJ Marky, Makoto and A-Sides - Tonight
TTITLE5=Bungle - 25th Floor (DJ Marky and Bungle VIP)
TTITLE6=Random Movement - Ruthless Machine
TTITLE7=Alix Perez - Crown City
TTITLE8=DJ Marky and Makoto - Long Distance
TTITLE9=DJ Marky and XRS - Butterfly (Laurent Garnier Broken Beat Remix)
EXTD=
EXTT0=
EXTT1=
EXTT2=
EXTT3=
EXTT4=
EXTT5=
EXTT6=
EXTT7=
EXTT8=
EXTT9=
PLAYORDER=
